<svg width="170" height="170" viewBox="0 0 170 170" xmlns="http://www.w3.org/2000/svg"><defs><linearGradient x1="50%" y1="0%" x2="50%" y2="100%" id="a"><stop stop-color="#FFF372" offset="0%"/><stop stop-color="#FFE32C" offset="100%"/></linearGradient></defs><g fill="none" fill-rule="evenodd"><circle stroke="#4A4A4A" fill="url(#a)" cx="85" cy="85" r="85"/><path d="M127.03 111.735C123.963 123.77 106.313 133 85 133s-38.964-9.23-42.03-21.265C55.367 113.813 69.713 115 85 115s29.634-1.187 42.03-3.265z" stroke="#979797" fill="#000"/><g transform="translate(35 40)" stroke="#4A4A4A" fill="#FFF"><path d="M20 50c11.046 0 20-11.193 20-25S31.046 0 20 0 0 11.193 0 25s8.954 25 20 25z"/><ellipse cx="80" cy="25" rx="20" ry="25"/></g><g transform="translate(43 50)" stroke="#4A4A4A" fill="#000"><path d="M12 30c6.627 0 12-6.716 12-15 0-8.284-5.373-15-12-15S0 6.716 0 15c0 8.284 5.373 15 12 15z"/><ellipse cx="72" cy="15" rx="12" ry="15"/></g></g></svg>