<?xml version="1.0" encoding="UTF-8" standalone="no"?>
<svg width="170px" height="170px" viewBox="0 0 170 170" version="1.1" xmlns="http://www.w3.org/2000/svg" xmlns:xlink="http://www.w3.org/1999/xlink">
    <defs>
        <linearGradient x1="50%" y1="0%" x2="50%" y2="100%" id="linearGradient-1">
            <stop stop-color="#FFF372" offset="0%"></stop>
            <stop stop-color="#FFE32C" offset="100%"></stop>
        </linearGradient>
    </defs>
    <g id="Page-1" stroke="none" stroke-width="1" fill="none" fill-rule="evenodd">
        <g id="smiley">
            <circle id="Oval-1" stroke="#4A4A4A" fill="url(#linearGradient-1)" cx="85" cy="85" r="85"></circle>
            <path d="M127.028886,111.735009 C123.963886,123.770495 106.31426,133 85,133 C63.6857395,133 46.036114,123.770495 42.9711136,111.735009 C55.3664333,113.812902 69.7118718,115 85,115 C100.288128,115 114.633567,113.812902 127.028886,111.735009 L127.028886,111.735009 Z" id="Oval-3" stroke="#979797" fill="#000000"></path>
            <g id="Oval-5-+-Oval-5" transform="translate(35.000000, 40.000000)" stroke="#4A4A4A" fill="#FFFFFF">
                <path d="M20,50 C31.0456955,50 40,38.8071194 40,25 C40,11.1928806 31.0456955,0 20,0 C8.95430446,0 0,11.1928806 0,25 C0,38.8071194 8.95430446,50 20,50 L20,50 Z" id="Oval-5"></path>
                <ellipse id="Oval-5" cx="80" cy="25" rx="20" ry="25"></ellipse>
            </g>
            <g id="Oval-5-+-Oval-5" transform="translate(43.000000, 50.000000)" stroke="#4A4A4A" fill="#000000">
                <path d="M12,30 C18.6274173,30 24,23.2842717 24,15 C24,6.71572834 18.6274173,0 12,0 C5.37258267,0 0,6.71572834 0,15 C0,23.2842717 5.37258267,30 12,30 L12,30 Z" id="Oval-5"></path>
                <ellipse id="Oval-5" cx="72" cy="15" rx="12" ry="15"></ellipse>
            </g>
        </g>
    </g>
</svg>