<?xml version="1.0" encoding="utf-8"?><svg xmlns="http://www.w3.org/2000/svg" xmlns:xlink="http://www.w3.org/1999/xlink"><defs><linearGradient x1="50%" y1="0%" x2="50%" y2="100%" id="aa"><stop stop-color="#269" offset="0%"/><stop stop-color="#152F41" offset="100%"/></linearGradient><linearGradient x1="50%" y1="100%" x2="50%" y2="0%" id="ba"><stop stop-color="#2337A8" offset="0%"/><stop stop-color="#CC78D2" offset="100%"/></linearGradient><linearGradient x1="50%" y1="0%" x2="50%" y2="100%" id="ca"><stop stop-color="#269" offset="0%"/><stop stop-color="#152F41" offset="100%"/></linearGradient><linearGradient x1="50%" y1="0%" x2="50%" y2="100%" id="da"><stop stop-color="#35A7F8" offset="0%"/><stop stop-color="#2337A8" offset="100%"/></linearGradient><linearGradient x1="50%" y1="0%" x2="50%" y2="100%" id="ea"><stop stop-color="#FF575F" offset="0%"/><stop stop-color="#A6121B" offset="100%"/></linearGradient><linearGradient x1="50%" y1="0%" x2="50%" y2="100%" id="fa"><stop stop-color="#FFD672" offset="0%"/><stop stop-color="#FF6C2C" offset="100%"/></linearGradient><linearGradient x1="50%" y1="0%" x2="50%" y2="100%" id="ga"><stop stop-color="#FFF372" offset="0%"/><stop stop-color="#FFE32C" offset="100%"/></linearGradient><linearGradient x1="50%" y1="0%" x2="50%" y2="87.374%" id="ha"><stop stop-color="#FDFF72" offset="0%"/><stop stop-color="#FFD22C" offset="100%"/></linearGradient><linearGradient x1="50%" y1="0%" x2="50%" y2="100%" id="ia"><stop stop-color="#B2E769" offset="0%"/><stop stop-color="#388F36" offset="100%"/></linearGradient><linearGradient x1="50%" y1="0%" x2="50%" y2="100%" id="ja"><stop stop-color="#84FFF5" offset="0%"/><stop stop-color="#36798F" offset="100%"/></linearGradient></defs><symbol viewBox="0 0 200 200" id="back"><path stroke="#979797" fill="url(#aa)" d="M0-1h200v200H0z" fill-rule="evenodd"/></symbol><symbol viewBox="0 0 168 168" id="badge"><title>memory</title><path stroke="#4A4A4A" fill="url(#ba)" d="M84 153.115l-16.583 14.252-9.866-19.513-20.772 6.82-1.65-21.802-21.802-1.65 6.82-20.773L.634 100.58 14.884 84 .635 67.417l19.512-9.866-6.82-20.772 21.802-1.65 1.65-21.802 20.773 6.82L67.42.634 84 14.884 100.583.635l9.866 19.512 20.772-6.82 1.65 21.802 21.802 1.65-6.82 20.773 19.512 9.868L153.116 84l14.25 16.583-19.512 9.866 6.82 20.772-21.802 1.65-1.65 21.802-20.773-6.82-9.868 19.512z" fill-rule="evenodd"/></symbol><symbol viewBox="0 0 200 200" id="card"><title>Slice 1</title><path stroke="#979797" fill="url(#ca)" d="M0-1h200v200H0z" fill-rule="evenodd"/></symbol><symbol viewBox="0 0 170 170" id="circle"><title>memory</title><circle stroke="#4A4A4A" fill="url(#da)" cx="85" cy="85" r="85" fill-rule="evenodd"/></symbol><symbol viewBox="0 0 170 171" id="heart"><title>memory</title><path d="M84.906 170.012C79.78 165.37-28.604 66.292 7.91 17.4 44.25-31.26 82.854 37.937 85 41.872c2.145-3.935 40.75-73.132 77.09-24.472 36.515 48.89-71.87 147.97-76.996 152.612v.17l-.094-.086-.094.085v-.167z" stroke="#4A4A4A" fill="url(#ea)" fill-rule="evenodd"/></symbol><symbol viewBox="0 0 170 169" id="rectangle"><title>memory</title><path stroke="#4A4A4A" fill="url(#fa)" d="M0 0h170v170H0z" fill-rule="evenodd"/></symbol><symbol viewBox="0 0 170 170" id="smiley"><g fill="none" fill-rule="evenodd"><circle stroke="#4A4A4A" fill="url(#ga)" cx="85" cy="85" r="85"/><path d="M127.03 111.735C123.963 123.77 106.313 133 85 133s-38.964-9.23-42.03-21.265C55.367 113.813 69.713 115 85 115s29.634-1.187 42.03-3.265z" stroke="#979797" fill="#000"/><g transform="translate(35 40)" stroke="#4A4A4A" fill="#FFF"><path d="M20 50c11.046 0 20-11.193 20-25S31.046 0 20 0 0 11.193 0 25s8.954 25 20 25z"/><ellipse cx="80" cy="25" rx="20" ry="25"/></g><g transform="translate(43 50)" stroke="#4A4A4A" fill="#000"><path d="M12 30c6.627 0 12-6.716 12-15 0-8.284-5.373-15-12-15S0 6.716 0 15c0 8.284 5.373 15 12 15z"/><ellipse cx="72" cy="15" rx="12" ry="15"/></g></g></symbol><symbol viewBox="0 0 162 154" id="star"><title>memory</title><path stroke="#4A4A4A" fill="url(#ha)" d="M81 131.525l-49.962 22.24 5.714-54.388L.16 58.734 53.653 47.36 81 0l27.347 47.36 53.493 11.374-36.592 40.643 5.714 54.39z" fill-rule="evenodd"/></symbol><symbol viewBox="0 0 170 170" id="triangle"><title>memory</title><path stroke="#4A4A4A" fill="url(#ia)" d="M85 0l85 170H0z" fill-rule="evenodd"/></symbol><symbol viewBox="0 0 170 169" id="triangle-2"><title>memory</title><path d="M0 0h170L85 170 0 0z" stroke="#4A4A4A" fill="url(#ja)" fill-rule="evenodd"/></symbol></svg>